<svg xmlns="http://www.w3.org/2000/svg" xmlns:xlink="http://www.w3.org/1999/xlink" width="1920" zoomAndPan="magnify" viewBox="0 0 1440 809.999993" height="1080" preserveAspectRatio="xMidYMid meet" version="1.0"><defs><g/></defs><g fill="#d32f23" fill-opacity="0.4196"><g transform="translate(120.861203, 598.319669)"><g><path d="M 81.921875 0 C 78.023438 0 76.078125 -1.953125 76.078125 -5.859375 L 46.28125 -365.46875 L 46.28125 -366.53125 C 46.28125 -370.4375 48.410156 -372.390625 52.671875 -372.390625 L 119.171875 -372.390625 C 123.066406 -372.390625 125.015625 -370.4375 125.015625 -366.53125 L 131.9375 -132.46875 C 131.9375 -131.050781 132.378906 -130.34375 133.265625 -130.34375 C 134.148438 -130.34375 134.769531 -131.050781 135.125 -132.46875 L 198.4375 -366.53125 C 199.5 -370.4375 201.976562 -372.390625 205.875 -372.390625 L 270.25 -372.390625 C 274.5 -372.390625 275.914062 -370.082031 274.5 -365.46875 L 155.875 -5.859375 C 154.8125 -1.953125 152.328125 0 148.421875 0 Z M 81.921875 0 "/></g></g></g><g fill="#d32f23" fill-opacity="0.4196"><g transform="translate(373.021721, 598.319669)"><g><path d="M 18.625 0 C 16.84375 0 15.421875 -0.617188 14.359375 -1.859375 C 13.296875 -3.097656 12.941406 -4.609375 13.296875 -6.390625 L 57.453125 -366 C 57.804688 -367.78125 58.601562 -369.289062 59.84375 -370.53125 C 61.082031 -371.769531 62.59375 -372.390625 64.375 -372.390625 L 124.484375 -372.390625 C 128.390625 -372.390625 130.34375 -370.257812 130.34375 -366 L 86.1875 -6.390625 C 85.832031 -4.609375 84.941406 -3.097656 83.515625 -1.859375 C 82.097656 -0.617188 80.503906 0 78.734375 0 Z M 18.625 0 "/></g></g></g><g fill="#d32f23" fill-opacity="0.4196"><g transform="translate(491.654202, 598.319669)"><g><path d="M 112.78125 4.25 C 85.113281 4.25 63.210938 -3.992188 47.078125 -20.484375 C 30.941406 -36.972656 22.875 -59.050781 22.875 -86.71875 C 22.875 -95.226562 23.226562 -101.609375 23.9375 -105.859375 L 55.859375 -366 C 56.210938 -367.78125 57.007812 -369.289062 58.25 -370.53125 C 59.488281 -371.769531 61 -372.390625 62.78125 -372.390625 L 122.890625 -372.390625 C 126.785156 -372.390625 128.734375 -370.257812 128.734375 -366 L 95.75 -98.421875 C 95.394531 -96.640625 95.21875 -94.15625 95.21875 -90.96875 C 95.21875 -81.75 97.523438 -74.300781 102.140625 -68.625 C 106.753906 -62.945312 112.960938 -60.109375 120.765625 -60.109375 C 129.628906 -60.109375 137.160156 -63.65625 143.359375 -70.75 C 149.566406 -77.84375 153.382812 -87.066406 154.8125 -98.421875 L 187.796875 -366 C 188.148438 -367.78125 188.945312 -369.289062 190.1875 -370.53125 C 191.425781 -371.769531 192.929688 -372.390625 194.703125 -372.390625 L 255.359375 -372.390625 C 257.128906 -372.390625 258.546875 -371.769531 259.609375 -370.53125 C 260.671875 -369.289062 261.023438 -367.78125 260.671875 -366 L 228.75 -105.859375 C 224.851562 -72.523438 212.265625 -45.835938 190.984375 -25.796875 C 169.703125 -5.765625 143.632812 4.25 112.78125 4.25 Z M 112.78125 4.25 "/></g></g></g><g fill="#d32f23" fill-opacity="0.4196"><g transform="translate(739.02687, 598.319669)"><g/></g></g><g fill="#8c52ff" fill-opacity="1"><g transform="translate(105.04674, 584.080275)"><g><path d="M 81.921875 0 C 78.023438 0 76.078125 -1.953125 76.078125 -5.859375 L 46.28125 -365.46875 L 46.28125 -366.53125 C 46.28125 -370.4375 48.410156 -372.390625 52.671875 -372.390625 L 119.171875 -372.390625 C 123.066406 -372.390625 125.015625 -370.4375 125.015625 -366.53125 L 131.9375 -132.46875 C 131.9375 -131.050781 132.378906 -130.34375 133.265625 -130.34375 C 134.148438 -130.34375 134.769531 -131.050781 135.125 -132.46875 L 198.4375 -366.53125 C 199.5 -370.4375 201.976562 -372.390625 205.875 -372.390625 L 270.25 -372.390625 C 274.5 -372.390625 275.914062 -370.082031 274.5 -365.46875 L 155.875 -5.859375 C 154.8125 -1.953125 152.328125 0 148.421875 0 Z M 81.921875 0 "/></g></g></g><g fill="#8c52ff" fill-opacity="1"><g transform="translate(357.207258, 584.080275)"><g><path d="M 18.625 0 C 16.84375 0 15.421875 -0.617188 14.359375 -1.859375 C 13.296875 -3.097656 12.941406 -4.609375 13.296875 -6.390625 L 57.453125 -366 C 57.804688 -367.78125 58.601562 -369.289062 59.84375 -370.53125 C 61.082031 -371.769531 62.59375 -372.390625 64.375 -372.390625 L 124.484375 -372.390625 C 128.390625 -372.390625 130.34375 -370.257812 130.34375 -366 L 86.1875 -6.390625 C 85.832031 -4.609375 84.941406 -3.097656 83.515625 -1.859375 C 82.097656 -0.617188 80.503906 0 78.734375 0 Z M 18.625 0 "/></g></g></g><g fill="#8c52ff" fill-opacity="1"><g transform="translate(475.839739, 584.080275)"><g><path d="M 112.78125 4.25 C 85.113281 4.25 63.210938 -3.992188 47.078125 -20.484375 C 30.941406 -36.972656 22.875 -59.050781 22.875 -86.71875 C 22.875 -95.226562 23.226562 -101.609375 23.9375 -105.859375 L 55.859375 -366 C 56.210938 -367.78125 57.007812 -369.289062 58.25 -370.53125 C 59.488281 -371.769531 61 -372.390625 62.78125 -372.390625 L 122.890625 -372.390625 C 126.785156 -372.390625 128.734375 -370.257812 128.734375 -366 L 95.75 -98.421875 C 95.394531 -96.640625 95.21875 -94.15625 95.21875 -90.96875 C 95.21875 -81.75 97.523438 -74.300781 102.140625 -68.625 C 106.753906 -62.945312 112.960938 -60.109375 120.765625 -60.109375 C 129.628906 -60.109375 137.160156 -63.65625 143.359375 -70.75 C 149.566406 -77.84375 153.382812 -87.066406 154.8125 -98.421875 L 187.796875 -366 C 188.148438 -367.78125 188.945312 -369.289062 190.1875 -370.53125 C 191.425781 -371.769531 192.929688 -372.390625 194.703125 -372.390625 L 255.359375 -372.390625 C 257.128906 -372.390625 258.546875 -371.769531 259.609375 -370.53125 C 260.671875 -369.289062 261.023438 -367.78125 260.671875 -366 L 228.75 -105.859375 C 224.851562 -72.523438 212.265625 -45.835938 190.984375 -25.796875 C 169.703125 -5.765625 143.632812 4.25 112.78125 4.25 Z M 112.78125 4.25 "/></g></g></g><g fill="#8c52ff" fill-opacity="1"><g transform="translate(723.212407, 584.080275)"><g/></g></g><g fill="#d32f23" fill-opacity="0.4196"><g transform="translate(842.215405, 598.319669)"><g><path d="M 222.90625 -368.140625 C 224.320312 -370.972656 226.976562 -372.390625 230.875 -372.390625 L 291 -372.390625 C 292.769531 -372.390625 294.1875 -371.769531 295.25 -370.53125 C 296.3125 -369.289062 296.664062 -367.78125 296.3125 -366 L 252.15625 -6.390625 C 251.800781 -4.609375 251.003906 -3.097656 249.765625 -1.859375 C 248.523438 -0.617188 247.019531 0 245.25 0 L 184.59375 0 C 182.820312 0 181.40625 -0.617188 180.34375 -1.859375 C 179.28125 -3.097656 178.925781 -4.609375 179.28125 -6.390625 L 208.53125 -245.25 C 208.882812 -246.664062 208.707031 -247.375 208 -247.375 C 207.289062 -247.375 206.582031 -246.84375 205.875 -245.78125 L 156.40625 -172.359375 C 154.28125 -169.523438 152.679688 -168.109375 151.609375 -168.109375 C 150.898438 -168.109375 149.660156 -169.523438 147.890625 -172.359375 L 117.03125 -245.78125 C 116.320312 -246.84375 115.613281 -247.375 114.90625 -247.375 C 114.195312 -247.375 113.84375 -246.664062 113.84375 -245.25 L 84.578125 -6.390625 C 84.222656 -4.609375 83.425781 -3.097656 82.1875 -1.859375 C 80.945312 -0.617188 79.441406 0 77.671875 0 L 17.03125 0 C 15.25 0 13.828125 -0.617188 12.765625 -1.859375 C 11.703125 -3.097656 11.347656 -4.609375 11.703125 -6.390625 L 55.859375 -366 C 56.210938 -367.78125 57.007812 -369.289062 58.25 -370.53125 C 59.488281 -371.769531 61 -372.390625 62.78125 -372.390625 L 122.359375 -372.390625 C 123.773438 -372.390625 125.191406 -372.035156 126.609375 -371.328125 C 128.023438 -370.617188 128.910156 -369.554688 129.265625 -368.140625 L 164.921875 -283.546875 C 165.628906 -282.128906 166.691406 -282.128906 168.109375 -283.546875 Z M 222.90625 -368.140625 "/></g></g></g><g fill="#d32f23" fill-opacity="0.4196"><g transform="translate(1124.699014, 598.319669)"><g><path d="M 240.453125 -314.40625 C 240.097656 -312.632812 239.300781 -311.125 238.0625 -309.875 C 236.820312 -308.632812 235.316406 -308.015625 233.546875 -308.015625 L 125.546875 -308.015625 C 123.773438 -308.015625 122.890625 -307.128906 122.890625 -305.359375 L 112.25 -221.3125 C 112.25 -219.53125 112.957031 -218.640625 114.375 -218.640625 L 176.625 -218.640625 C 178.394531 -218.640625 179.8125 -218.019531 180.875 -216.78125 C 181.9375 -215.539062 182.289062 -214.035156 181.9375 -212.265625 L 175.5625 -160.65625 C 175.195312 -158.882812 174.394531 -157.378906 173.15625 -156.140625 C 171.914062 -154.898438 170.410156 -154.28125 168.640625 -154.28125 L 106.921875 -154.28125 C 104.796875 -154.28125 103.734375 -153.390625 103.734375 -151.609375 L 93.625 -67.03125 C 92.914062 -65.257812 93.625 -64.375 95.75 -64.375 L 203.21875 -64.375 C 204.988281 -64.375 206.492188 -63.75 207.734375 -62.5 C 208.984375 -61.257812 209.425781 -59.753906 209.0625 -57.984375 L 202.6875 -6.390625 C 202.332031 -4.609375 201.535156 -3.097656 200.296875 -1.859375 C 199.054688 -0.617188 197.546875 0 195.765625 0 L 18.625 0 C 16.84375 0 15.421875 -0.617188 14.359375 -1.859375 C 13.296875 -3.097656 12.941406 -4.609375 13.296875 -6.390625 L 57.453125 -366 C 57.804688 -367.78125 58.601562 -369.289062 59.84375 -370.53125 C 61.082031 -371.769531 62.59375 -372.390625 64.375 -372.390625 L 241.515625 -372.390625 C 243.296875 -372.390625 244.71875 -371.769531 245.78125 -370.53125 C 246.84375 -369.289062 247.195312 -367.78125 246.84375 -366 Z M 240.453125 -314.40625 "/></g></g></g><g fill="#4838ff" fill-opacity="1"><g transform="translate(826.400942, 584.080275)"><g><path d="M 222.90625 -368.140625 C 224.320312 -370.972656 226.976562 -372.390625 230.875 -372.390625 L 291 -372.390625 C 292.769531 -372.390625 294.1875 -371.769531 295.25 -370.53125 C 296.3125 -369.289062 296.664062 -367.78125 296.3125 -366 L 252.15625 -6.390625 C 251.800781 -4.609375 251.003906 -3.097656 249.765625 -1.859375 C 248.523438 -0.617188 247.019531 0 245.25 0 L 184.59375 0 C 182.820312 0 181.40625 -0.617188 180.34375 -1.859375 C 179.28125 -3.097656 178.925781 -4.609375 179.28125 -6.390625 L 208.53125 -245.25 C 208.882812 -246.664062 208.707031 -247.375 208 -247.375 C 207.289062 -247.375 206.582031 -246.84375 205.875 -245.78125 L 156.40625 -172.359375 C 154.28125 -169.523438 152.679688 -168.109375 151.609375 -168.109375 C 150.898438 -168.109375 149.660156 -169.523438 147.890625 -172.359375 L 117.03125 -245.78125 C 116.320312 -246.84375 115.613281 -247.375 114.90625 -247.375 C 114.195312 -247.375 113.84375 -246.664062 113.84375 -245.25 L 84.578125 -6.390625 C 84.222656 -4.609375 83.425781 -3.097656 82.1875 -1.859375 C 80.945312 -0.617188 79.441406 0 77.671875 0 L 17.03125 0 C 15.25 0 13.828125 -0.617188 12.765625 -1.859375 C 11.703125 -3.097656 11.347656 -4.609375 11.703125 -6.390625 L 55.859375 -366 C 56.210938 -367.78125 57.007812 -369.289062 58.25 -370.53125 C 59.488281 -371.769531 61 -372.390625 62.78125 -372.390625 L 122.359375 -372.390625 C 123.773438 -372.390625 125.191406 -372.035156 126.609375 -371.328125 C 128.023438 -370.617188 128.910156 -369.554688 129.265625 -368.140625 L 164.921875 -283.546875 C 165.628906 -282.128906 166.691406 -282.128906 168.109375 -283.546875 Z M 222.90625 -368.140625 "/></g></g></g><g fill="#4838ff" fill-opacity="1"><g transform="translate(1108.884551, 584.080275)"><g><path d="M 240.453125 -314.40625 C 240.097656 -312.632812 239.300781 -311.125 238.0625 -309.875 C 236.820312 -308.632812 235.316406 -308.015625 233.546875 -308.015625 L 125.546875 -308.015625 C 123.773438 -308.015625 122.890625 -307.128906 122.890625 -305.359375 L 112.25 -221.3125 C 112.25 -219.53125 112.957031 -218.640625 114.375 -218.640625 L 176.625 -218.640625 C 178.394531 -218.640625 179.8125 -218.019531 180.875 -216.78125 C 181.9375 -215.539062 182.289062 -214.035156 181.9375 -212.265625 L 175.5625 -160.65625 C 175.195312 -158.882812 174.394531 -157.378906 173.15625 -156.140625 C 171.914062 -154.898438 170.410156 -154.28125 168.640625 -154.28125 L 106.921875 -154.28125 C 104.796875 -154.28125 103.734375 -153.390625 103.734375 -151.609375 L 93.625 -67.03125 C 92.914062 -65.257812 93.625 -64.375 95.75 -64.375 L 203.21875 -64.375 C 204.988281 -64.375 206.492188 -63.75 207.734375 -62.5 C 208.984375 -61.257812 209.425781 -59.753906 209.0625 -57.984375 L 202.6875 -6.390625 C 202.332031 -4.609375 201.535156 -3.097656 200.296875 -1.859375 C 199.054688 -0.617188 197.546875 0 195.765625 0 L 18.625 0 C 16.84375 0 15.421875 -0.617188 14.359375 -1.859375 C 13.296875 -3.097656 12.941406 -4.609375 13.296875 -6.390625 L 57.453125 -366 C 57.804688 -367.78125 58.601562 -369.289062 59.84375 -370.53125 C 61.082031 -371.769531 62.59375 -372.390625 64.375 -372.390625 L 241.515625 -372.390625 C 243.296875 -372.390625 244.71875 -371.769531 245.78125 -370.53125 C 246.84375 -369.289062 247.195312 -367.78125 246.84375 -366 Z M 240.453125 -314.40625 "/></g></g></g></svg>